<?xml version="1.0" encoding="iso-8859-1"?>
<!-- Uploaded to: SVG Repo, www.svgrepo.com, Generator: SVG Repo Mixer Tools -->
<svg height="800px" width="800px" version="1.1" id="Layer_1" xmlns="http://www.w3.org/2000/svg" xmlns:xlink="http://www.w3.org/1999/xlink" 
	 viewBox="0 0 511.995 511.995" xml:space="preserve">
<g>
	<path style="fill:#E46A5D;" d="M255.998,0C120.691,0,11,109.691,11,244.997s109.691,244.997,244.997,244.997
		s244.997-109.691,244.997-244.997S391.304,0,255.998,0L255.998,0z"/>
	<path style="fill:#D45446;" d="M500.995,244.997c0-1.256-0.074-2.492-0.094-3.743L363.938,104.202l-39.254-22.663l-6.186-3.57
		l-33.166-19.147l-14.444-8.342l-4.564-2.636l-10.325-5.964l-107.94,62.322v28.839v33.072v29.492v33.072v12.679l59.974,58.658
		l0.247,0.663v0.895l0.425,0.247c2.903,7.076,7.358,13.342,12.926,18.405c1.063,1.162,15.557,15.666,16.729,16.729l0.88,0.959v5.885
		v3.531l0,0c0,3.996,0.697,7.823,1.978,11.374c1.924,5.326,5.153,10.024,9.307,13.708l0.257,0.203
		c0.964,1.113,54.376,54.41,54.801,54.85c0.015,0.46,0.094,0.9,0.094,1.365c0,25.244-18.954,46.093-43.333,49.223
		c-0.766-0.875-58.144-58.292-59.415-59.247c-3.061-4.07-7.882-6.745-13.366-6.745c-9.257,0-16.724,7.507-16.724,16.769
		c0,19.924,7.047,38.215,18.757,52.551c20.527,5.578,42.102,8.614,64.394,8.614C391.304,489.995,500.995,380.304,500.995,244.997
		L500.995,244.997z"/>
	<path style="fill:#3194B0;" d="M339.173,428.829c0,45.88-37.33,83.166-83.166,83.166c-45.88,0-83.166-37.286-83.166-83.166
		c0-9.257,7.467-16.769,16.724-16.769c9.257,0,16.769,7.507,16.769,16.769c0,27.4,22.272,49.673,49.673,49.673
		c27.361,0,49.673-22.272,49.673-49.673c0-23.647-16.64-43.502-38.789-48.466c-0.499-0.124-1.043-0.252-1.543-0.331
		c-14.934-3.377-26.11-16.724-26.11-32.702v-40.5c0-9.218,7.507-16.724,16.769-16.724s16.724,7.507,16.724,16.724v40.5
		c11.26,2.334,21.689,6.923,30.783,13.307C325.08,375.655,339.173,400.638,339.173,428.829L339.173,428.829z"/>
	<path style="fill:#2B8199;" d="M265.354,380.032c0.499,0.084,1.043,0.208,1.543,0.331c20.161,4.52,35.713,21.387,38.349,42.211
		c0.262-2.057,0.44-4.134,0.44-6.26c0-23.647-16.64-43.502-38.789-48.466c-0.499-0.124-1.043-0.252-1.543-0.331
		c-14.934-3.377-26.11-16.724-26.11-32.702v12.511C239.244,363.307,250.42,376.654,265.354,380.032z M338.876,422.168
		c-3.021,43.146-39.007,77.316-82.869,77.316c-42.933,0-78.329-32.652-82.701-74.443c-0.282,1.221-0.465,2.477-0.465,3.788
		c0,45.88,37.286,83.166,83.166,83.166c45.836,0,83.166-37.286,83.166-83.166C339.173,426.584,339.054,424.369,338.876,422.168z"/>
	<polygon style="fill:#F1B14F;" points="255.998,303.67 148.057,241.353 148.057,104.202 255.998,41.88 363.938,104.202 
		363.938,241.353 	"/>
	<path style="fill:#D34837;" d="M324.684,81.539L324.684,81.539l20.967,12.105l0,0L324.684,81.539L324.684,81.539z M285.02,58.638
		L285.02,58.638l20.967,12.105l0,0L285.02,58.638L285.02,58.638z M256.007,41.889L256.007,41.889l10.315,5.954l0,0l9.326,5.385
		L256.007,41.889L256.007,41.889z"/>
	<path style="fill:#F0973E;" d="M363.938,104.845l-46.983,46.983c5.148,6.513,8.748,14.316,10.231,22.841l36.752-36.752V104.845
		L363.938,104.845z M324.684,81.539l-50.855,50.855h3.021c8.693,0,16.877,2.171,24.048,6.003l44.753-44.753L324.684,81.539
		L324.684,81.539z M285.02,58.638l-29.013,29.013v33.072l49.98-49.98L285.02,58.638L285.02,58.638z M256.007,41.889v16.269
		l10.315-10.315L256.007,41.889L256.007,41.889z"/>
	<path style="fill:#F0973E;" d="M363.938,229.969l-26.926,26.926l-29.922,17.273l56.848-32.82V229.969L363.938,229.969z
		 M363.938,167.41l-35.995,35.995v33.072l35.995-35.995V167.41L363.938,167.41z"/>
	<polygon style="fill:#FFFFFF;" points="219.345,282.51 238.042,293.305 363.938,167.41 363.938,137.917 	"/>
	<polygon style="fill:#FFFFFF;" points="345.651,93.639 179.681,259.61 198.378,270.405 363.938,104.845 363.938,104.202 	"/>
	<polygon style="fill:#FFFFFF;" points="337.012,256.9 363.938,229.969 363.938,200.482 267.233,297.182 	"/>
	<polygon style="fill:#FFFFFF;" points="148.057,228.674 148.057,241.353 158.714,247.504 324.684,81.539 305.987,70.744 	"/>
	<polygon style="fill:#FFFFFF;" points="148.057,133.041 216.289,64.805 148.057,104.202 	"/>
	<polygon style="fill:#FFFFFF;" points="148.057,166.109 148.057,195.601 285.02,58.638 266.323,47.843 	"/>
	<path style="fill:#CEEAF2;" d="M266.323,47.843l-10.325,10.325v29.492l29.022-29.022L266.323,47.843L266.323,47.843z
		 M305.987,70.744l-49.989,49.989v29.492l68.687-68.687L305.987,70.744L305.987,70.744z M337.012,256.9l26.926-26.926v-29.492
		l-96.705,96.7L337.012,256.9L337.012,256.9z M255.998,275.35l107.94-107.94v-29.492l-107.94,107.94V275.35L255.998,275.35z
		 M345.651,93.639l-89.654,89.654v29.492l107.94-107.94v-0.648L345.651,93.639L345.651,93.639z"/>
	<path style="fill:#EF8131;" d="M316.955,151.828L303.683,165.1c2.201,5.707,3.407,11.903,3.407,18.386v11.28l20.097-20.097
		C325.703,166.144,322.108,158.34,316.955,151.828L316.955,151.828z M276.851,132.394h-3.021l-2.379,2.379
		c7.853,2.487,14.88,6.819,20.581,12.491l8.866-8.866C293.733,134.565,285.544,132.394,276.851,132.394L276.851,132.394z"/>
	<polygon style="fill:#EF8131;" points="327.943,203.404 307.09,224.258 307.09,257.325 327.943,236.472 	"/>
	<polygon style="fill:#FED9CA;" points="327.943,203.404 307.09,224.258 307.09,224.258 327.943,203.404 	"/>
	<path style="fill:#FED9CA;" d="M316.955,151.828L303.683,165.1L316.955,151.828L316.955,151.828L316.955,151.828z M300.899,138.392
		l-8.866,8.866l0,0L300.899,138.392L300.899,138.392L300.899,138.392z"/>
	<polygon style="fill:#FED9CA;" points="273.829,132.394 273.829,132.394 271.451,134.772 271.451,134.772 	"/>
	<path style="fill:#CDC7BF;" d="M327.943,236.472l-20.853,20.853v16.843l20.853-12.041V236.472L327.943,236.472z M327.186,174.669
		l-20.097,20.097v29.492l20.853-20.853v-19.919C327.943,180.479,327.686,177.532,327.186,174.669L327.186,174.669z M300.899,138.392
		l-8.866,8.866c5.044,5.019,9.044,11.082,11.651,17.837l13.273-13.272C312.603,146.319,307.134,141.73,300.899,138.392
		L300.899,138.392z M273.829,132.394h-17.832c5.385,0,10.577,0.836,15.453,2.379L273.829,132.394L273.829,132.394z"/>
	<path style="fill:#F0973E;" d="M242.547,134.184c-17.407,4.737-31.114,18.45-35.857,35.857l0,0
		C211.433,152.629,225.14,138.921,242.547,134.184L242.547,134.184L242.547,134.184z"/>
	<path style="fill:#FED9CA;" d="M206.695,170.035L206.695,170.035c-1.167,4.287-1.79,8.792-1.79,13.451v17.832v-17.832
		C204.905,178.833,205.528,174.323,206.695,170.035L206.695,170.035z M251.987,132.547c-3.239,0.252-6.394,0.806-9.435,1.632l0,0
		C245.588,133.353,248.743,132.799,251.987,132.547L251.987,132.547z"/>
	<path style="fill:#2B8199;" d="M255.998,346.113c5.801,0,11.393-0.846,16.739-2.309v-23.41c0-9.218-7.467-16.724-16.724-16.724
		c-9.257,0-16.769,7.507-16.769,16.724v23.405C244.589,345.263,250.192,346.113,255.998,346.113L255.998,346.113z"/>
	<path style="fill:#F1B14F;" d="M255.998,132.394c-28.216,0-51.092,22.876-51.092,51.092v99.02
		c0,28.216,22.876,51.092,51.092,51.092c28.216,0,51.092-22.876,51.092-51.092v-99.02
		C307.09,155.269,284.214,132.394,255.998,132.394L255.998,132.394z"/>
	<path style="fill:#EE6E27;" d="M303.683,165.1L303.683,165.1c2.201,5.707,3.407,11.903,3.407,18.386v11.28v-11.28
		C307.09,177.003,305.883,170.807,303.683,165.1L303.683,165.1z M271.451,134.772L271.451,134.772
		c7.853,2.487,14.88,6.819,20.581,12.491l0,0C286.33,141.591,279.304,137.26,271.451,134.772L271.451,134.772z"/>
	<path style="fill:#FDB9A0;" d="M303.683,165.1L303.683,165.1L303.683,165.1L303.683,165.1z M292.032,147.263L292.032,147.263
		L292.032,147.263L292.032,147.263L292.032,147.263L292.032,147.263z"/>
	<path style="fill:#CCA997;" d="M307.09,257.325L307.09,257.325v16.843V257.325L307.09,257.325z M307.09,194.766L307.09,194.766
		v29.492V194.766L307.09,194.766z M292.032,147.263L292.032,147.263c5.044,5.019,9.044,11.082,11.651,17.837l0,0
		C301.077,158.345,297.071,152.278,292.032,147.263L292.032,147.263z M255.998,132.394L255.998,132.394
		c5.385,0,10.577,0.836,15.453,2.379l0,0C266.575,133.224,261.383,132.394,255.998,132.394L255.998,132.394z"/>
	<path style="fill:#D34837;" d="M307.035,284.894c-0.979,21.313-15.018,39.219-34.304,45.905l0,0
		C292.017,324.113,306.056,306.207,307.035,284.894L307.035,284.894z"/>
	<path style="fill:#2B6E79;" d="M255.998,333.603L255.998,333.603L255.998,333.603L255.998,333.603z M272.737,330.794
		c-5.222,1.81-10.82,2.794-16.655,2.804C261.912,333.593,267.515,332.604,272.737,330.794L272.737,330.794L272.737,330.794z"/>
	<path style="fill:#F0973E;" d="M255.998,132.394L255.998,132.394v201.209l0,0h0.084c5.835-0.01,11.433-0.994,16.655-2.804
		c19.281-6.681,33.325-24.592,34.304-45.905c0.035-0.791,0.054-1.587,0.054-2.384v-8.332v-16.843v-33.077v-29.492v-11.28
		c0-6.483-1.207-12.679-3.407-18.386c-2.606-6.755-6.612-12.822-11.651-17.837l0,0c-5.702-5.672-12.729-10.004-20.581-12.491l0,0
		C266.575,133.224,261.383,132.394,255.998,132.394L255.998,132.394z"/>
	<path style="fill:#CEEAF2;" d="M255.998,200.482c10.192,0,18.455-8.263,18.455-18.455c0-10.192-8.263-18.455-18.455-18.455
		c-10.192,0-18.455,8.263-18.455,18.455C237.543,192.219,245.806,200.482,255.998,200.482z M255.998,266.755
		c-10.192,0-18.455,8.263-18.455,18.455c0,10.192,8.263,18.455,18.455,18.455c10.192,0,18.455-8.263,18.455-18.455
		C274.452,275.014,266.189,266.755,255.998,266.755z"/>
	<path style="fill:#FFFFFF;" d="M274.452,182.022c0-10.192-8.263-18.455-18.455-18.455l0,0v36.91l0,0
		C266.189,200.482,274.452,192.214,274.452,182.022z M255.998,266.755L255.998,266.755v36.91l0,0
		c10.192,0,18.455-8.263,18.455-18.455C274.452,275.014,266.189,266.755,255.998,266.755z"/>
	<path style="fill:#E46A5D;" d="M255.998,295.323c-5.578,0-10.113-4.54-10.113-10.113c0-5.578,4.54-10.113,10.113-10.113
		c5.578,0,10.113,4.54,10.113,10.113S261.576,295.323,255.998,295.323z M255.998,192.14c-5.578,0-10.113-4.54-10.113-10.113
		c0-5.578,4.54-10.118,10.113-10.118c5.578,0,10.113,4.54,10.113,10.118C266.11,187.6,261.576,192.14,255.998,192.14z"/>
</g>
</svg>